<svg id="Layer_1" data-name="Layer 1" xmlns="http://www.w3.org/2000/svg" viewBox="0 0 218.45 218.45"><defs><style>.cls-1{fill:#035f67;stroke-linecap:round;}.cls-1,.cls-2{stroke:#fff;stroke-miterlimit:10;stroke-width:4px;}.cls-2,.cls-3{fill:none;}.cls-4{font-size:15.03px;font-family:PragatiNarrow-Bold, Pragati Narrow;font-weight:700;letter-spacing:0em;}.cls-4,.cls-6{fill:#fff;}.cls-5{letter-spacing:-0.06em;}.cls-6{font-size:102.44px;font-family:Acme-Regular, Acme;}</style></defs><title>logo</title><circle class="cls-1" cx="109.22" cy="109.22" r="107.22"/><path class="cls-2" d="M110.55,17.12l76.59,44.22a4,4,0,0,1,2,3.46v88.44a4,4,0,0,1-2,3.47l-76.59,44.21a4,4,0,0,1-4,0L30,156.71a4,4,0,0,1-2-3.47V64.8a4,4,0,0,1,2-3.46l76.59-44.22A4,4,0,0,1,110.55,17.12Z" transform="translate(0.68 0.2)"/><path class="cls-2" d="M64.33,28.43h88.44a4,4,0,0,1,3.46,2L200.45,107a4,4,0,0,1,0,4l-44.22,76.59a4,4,0,0,1-3.46,2H64.33a4,4,0,0,1-3.47-2L16.64,111a4,4,0,0,1,0-4L60.86,30.43A4,4,0,0,1,64.33,28.43Z" transform="translate(0.68 0.2)"/><line class="cls-3" x1="55.84" y1="41.81" x2="59.33" y2="41.81"/><line class="cls-3" x1="161.72" y1="173.97" x2="161.72" y2="173.97"/><text class="cls-4" transform="translate(54.8 158.86)">MACKENZIE E<tspan class="cls-5" x="77.73" y="0">V</tspan><tspan x="84.44" y="0">ANS</tspan></text><text class="cls-6" transform="translate(49.25 136.35) scale(0.94 1)">ME</text></svg>